<?xml version="1.0" encoding="UTF-8"?>
<svg id="Layer_1" data-name="Layer 1" xmlns="http://www.w3.org/2000/svg" version="1.1" viewBox="0 0 464.6 460.1">
  <defs>
    <style>
      .cls-1 {
        fill: #155dfc;
      }

      .cls-1, .cls-2, .cls-3 {
        stroke-width: 0px;
      }

      .cls-2 {
        fill: #e7000b;
      }

      .cls-3 {
        fill: #193cb8;
      }
    </style>
  </defs>
  <path class="cls-2" d="M276.7,179.2c-24.5-24.5-64.2-24.5-88.8,0-24.5,24.5-20.1,62.6,0,88.8,10.8,14,44.4,54.9,44.4,54.9,0,0,34.6-41.4,45.3-55.9,18.7-25.2,23.6-63.3-.9-87.8ZM256.6,225.2l-19.3,19.3c-2.8,2.8-7.3,2.8-10.1,0l-19.3-19.3c-2.8-2.8-2.8-7.3,0-10.1l19.3-19.3c2.8-2.8,7.3-2.8,10.1,0l19.3,19.3c2.8,2.8,2.8,7.3,0,10.1Z"/>
  <path class="cls-1" d="M364.5,202c18.5-32.2,37.1-64.2,55.2-96.7,1.6-2.9.4-9-1.7-12.1-15.8-22.8-35.9-41.2-59-56.5C326.1,15.1,290.1,3.7,249.4,0c-2.2-.2-3.8,2.2-2.7,4.1,38.1,67.1,75.1,132.2,112.7,198.3,1,1.8,3.5,1.9,4.6.2.2-.2.3-.4.4-.7h.1Z"/>
  <path class="cls-1" d="M136.9,132.4c-35.3,0-70.7.1-106-.1-6.1,0-8.9,2.2-11.1,7.6-27.7,65.2-26.2,129.6,4.6,193.4.1.3.3.5.6.8,1.3,1.3,3.4,1,4.4-.5,37.9-65.5,75.3-130.3,113.6-196.6,1-1.7,0-3.9-2.1-4.1-1.5-.2-2.7-.3-3.9-.3v-.2Z"/>
  <path class="cls-3" d="M97.2,263.8c-17.3,30.8-34.4,61.8-51.9,92.5-3,5.3-2.4,8.8,1.2,13.4,43.4,56,100.3,86.2,171,90.5.3,0,.6,0,.9-.1,1.8-.5,2.6-2.5,1.7-4.1-38.7-65-76.9-129.4-116.1-195.2-1-1.7-3.4-1.8-4.6-.2-.9,1.2-1.6,2.2-2.1,3.2h0Z"/>
  <path class="cls-3" d="M219.8,8.1c-3.7-6.7-7.5-8.3-14.3-7.4-45.3,6.5-86.4,22.7-121.6,52.3-16.7,14.1-31.5,29.8-43.7,49.3-1.2,1.8.2,4.2,2.3,4.2h228.7c2.1,0,3.4-2.2,2.4-4-.8-1.6-1.5-2.9-2.3-4.3-17.3-30-34.9-59.8-51.5-90.2h0Z"/>
  <path class="cls-3" d="M457.8,178.1c-3.8-15.8-9.9-31.1-15.3-46.5l-8.5-.7c-37.1,66.6-74.2,133.2-112.1,201.3-1,1.8.3,4.1,2.4,4.1h102.6c17,0,16.7-.1,22.7-16.8,16.6-46.3,19.6-93.5,8.2-141.3h0Z"/>
</svg>